/* XPM */
static char *ac4b49cd10f849eaabe5fd49d02aba3c4OgPpHy6tWBzCkbZ[] = {
/* columns rows colors chars-per-pixel */
"64 64 14 1 ",
"  c #736B52",
". c #7B7363",
"X c #847B63",
"o c #948C7B",
"O c #9C947B",
"+ c #A59C7B",
"@ c #B5AD8C",
"# c #ADA594",
"$ c #B5AD94",
"% c #C6BDA5",
"& c #CEC6A5",
"* c #DED6BD",
"= c #E7E7BD",
"- c #EFEFCE",
/* pixels */
"**%*o-*%%%%o*%*%**o-%%%%%o%**%**-*%%%%o&@&&@&X-*%%%%o*%*%**o-%%%",
"#o#o#*%%%%*##o##oo#*%%*%*#o#o#oo*%%%*%#+XOXOXO*%%*%*##oo#oo#*%%*",
"*-**$*%%%$*#==&&=&+*%%%$*#-*-*-**%%%%$#--*-**$*%%%$*#---*-*$*%%%",
"%%%*#%%%$%*o&@@@@&O%%$%%*o%%%%%*%%%$%%o*%%%%*#%%%%%*o*%%%%*#%%$%",
"*%*%o%%%%$*#=@&&+@X%%%*$*#%*%*$%%%%%*$#-%*%*%o%%%*$*#-%%*$%o%%%*",
"%%%*#*%*%%%o=@@@@&O**%%%%o%%%%%**%*%%%o-%%%%*#*%*%%%o-%%%%*#**%%",
"%$%%#%%%$%*o&@@@&@O%%$%%*o%%$%*%%%%$%%o*%%$%%#%%%%%*o*%$%*%#%%$%",
"%%%%o*%****o=&@@@@X***%**o*%%%%%*%**%*o-*%%%%o*%*%**o-*%%%%o***%",
"%%**##o#ooo#&@@&@&O##o#oo#%%%*%*#o#o#o#*%%%**##o##oo#*%%*%*###o#",
"%*%%o=@&@&@X=&@@@@X @@@&@X*%*%%%-%*%%*o%*%*%%o-%*%*%o%**%%%o-*%%",
"%$%*o&@@@@&O&@@@@&XX@@@@&O%%$%%**%%%%%#%%%$%*o*%%%%*#%%$%%*o*%%%",
"%%**#=@&@+@X&@@&+&O @@&+@X%%%*$*-%*%*$o%%%%**#-%**$%o%%%*$*#-*%*",
"*%%%o=@@@@&O=@&@@@X @@@@&O%*%%%%-%%%%%#*%*%%%o-%%%%*#*%%%%%o-%%%",
"%$%*o&@@+&@O&@@@@&XX@+@&@O%%$%%**%%$%*#%%%$%*o*%%%*%#%%$%%*o*%$%",
"**%*o=&@@@@X&@&@&&X @@@@@X%**%**-*%%%%o*%**%*o-*%%%%o*%*%**o-%%%",
"*-**$&@@@+&O--**-*$X@@@+&O-*-*-**%%%%$#o.o...o*%%%$*#---*-*$*%%%",
"*%%%o=&@&@@X-%*%*%o @&@@@X%*%%*%%*%*%%o%$$$$$o%*%%%%o-%%%*%o%%*%",
"%%%*#&@@+@&X*%%%%*#X@+@@&X%%%%%*%%%$%%o*%%%%*#%%%%%*o*%%%%*#%%$%",
"*%*%o&@@@+&O-%**$%o @@&+&O%*%*$%%%%%*$#-%*%*%o%%%*$*#-%%*$%o%%%*",
"%%%*#=@&@@@X-%%%%*#X&@@@@X%%%%%**%*%%%o-%%%%*#*%*%%%o-%%%%*#**%%",
"%%%%o&@&&&&X-*%%%%oX&&@&&X*%%%%%*%**%*o-*%%%%o*%*%**o-*%%%%o***%",
"%%**#+XOXXXO*%%*%*#+OXOXXO%%%*%*#o#o#o#*%%%**##o##oo#*%%*%*###o#",
"%%%*##*.#-*$*%%%$*#-*-*-*$%%%%$*--*-*-$*%%%%*o--**-*$*%%%$*#=&=&",
"%*%%o*%o$%%o%*%%%%o-*%%*%o*%*%%%-%*%%*o-*%*%%o-%*%*%o%**%%%o=&@@",
"%$%*o%#o$%*#%%%%%*o*%%%%*#%%$%%**%%%%%#*%*%%*o*%%%%*#%%$%%*o&@@@",
"%%**#%.#o$%o%%%*$*#-*%*$%o%%%*$*-%*%*$o**%***#-%**$%o%%%*$*#=&@&",
"%$%*oo*%*%*.%%%%%*o*%$%*%#%%$%%**%%$%*#****--o*%%%*%#%%$%%*o&@+@",
"**%*o#*%%o#o*%*%**o-%%%%%o%**%**-*%%%%o-*-**%o-*%%%%o*%*%**o=@@@",
"#o#o#*%*%#oo#o##oo#*%%*%*#o#o#oo*%%%*%##o#o#o#*%%*%*##oo#oo#&@@&",
"*-**$*%%%$*#--**-*$*%%%$*#-*-*-**%%%%$#--*-**$*%%%$*#---*-*$&@@@",
"*%%%o%*%*%%o-%*%*%o%%*%%%o%*%%*%%*%*%%o-%*%%%o%*%%%%o-%%%*%o=@&@",
"%%%*#%%%$%*o*%%%%*#%%$%%*o%%%%%*%%%$%%o*%%%%*#%%%%%*o*%%%%*#&@+@",
"%%%*#*%*%%%o-%%%%*#**%%%%o%%%%%**%*%%%o-%%%%*#*%*%%%o-%%%%*#=&@@",
"%$%%#%%%$%*o*%%%*%#%%$%%*o%%$%*%%%%$%%o*%%$%%#%%%%%*o*%$%*%#&@+@",
"%%%%o*%****o-*%%%%o***%**o*%%%%%*%**%*o-*%%%%o*%*%**o-*%%%%o&&&@",
"%%**##o#ooo#*%%*%*###o#oo#%%%*%*#o#o#o#*%%%**##o##oo#*%%*%*#+OXO",
"%%%*#==&==&+*%%%$*#-*-*-*$%%%%$*--*-*-$*%%%%*##*.*-*$*%%%$*#oo..",
"%*%%o=@&@&@X%*%%%%o-*%%*%o*%*%%%-%*%%*o%*%*%%o*%o%%%o%**%%%o%$$$",
"%%**#=@&@+@X%%%*$*#-*%*$%o%%%*$*-%*%*$o%%%%**#%.#*$%o%%%*$*#-*%*",
"*%%%o=@@@@&O*%*%%%o-%%%%*#%*%%%%-%%%%%#*%*%%%o#o*o*%.*%%%%%o-%%%",
"%$%*o&@@+&@O%%%%%*o*%$%*%#%%$%%**%%$%*#%%%$%*oo*%#%*.%%$%%*o*%$%",
"**%*o=&@@@@X*%*%**o-%%%%%o%**%**-*%%%%o*%**%*o#*%*o#o*%*%**o-%%%",
"#o#o#&@@@@&O#o##oo#*%%*%*#o#o#oo*%%%*%##o#o#o#*%*%#oo#oo#oo#*%%*",
"*-**$&@@@+&O==&&=&+*%%%$*#-*-*-**%%%%$#--*-**$*%$*$#.---*-*$*%%%",
"%%%*#&@@+@&X&@@@@&O%%$%%*o%%%%%*%%%$%%o*%%%%*#ooo%%#o*%%%%*#**%%",
"*%*%o&@@@+&O=@&&+@X%%%*$*#%*%*$%%%%%*$#-%*%*%o***##*.-%%*$%o*%**",
"%%%*#=@&@@@X=@@@@&O**%%%%o%%%%%**%*%%%o-%%%%*#-%%*$%o-%%%%*#-*%*",
"%$%%#&@@+@&X&@@@&@O%%$%%*o%%$%*%%%%$%%o*%%$%%#*$%$%o.*%$%*%#***-",
"%%%%o&@&&&&X=&@@@@X***%**o*%%%%%*%**%*o-*%%%%o#%*%o.o-*%%%%o--**",
"%%%*#--*--*$&@@@+&O-*-*-*$%%%%$*o.o..oo*%%%%*#X@&&=&+*%%%$*#-*-*",
"%*%%o-%*%*%o=&@@@@X-*%%*%o*%*%%%%$$$$$o%*%*%%o @@@&@X%**%%%o-*%%",
"%$%*o*%%%%*#&@@@@&X*%%%%*#%%$%%**%%%%%#%%%$%*oX+@@@&O%%$%%*o*%%%",
"%%**#-%*%$%o&@@&+&O-*%*$%o%%%*$*-%*%*$o%%%%**# +@&+@X%%%*$*#-*%*",
"*%%%o-%%%%*#=@&@@@X-%%%%*#%*%%%%-%%%%%#*%*%%%o @@@@&O*%%%%%o-%%%",
"%$%*o*%%$*%#&@@@@&X*%$%*%#%%$%%**%%$%*#%%%$%*oX+@@&@O%%$%%*o*%$%",
"#o#o#*%%%%*#+XOOXXO*%%*%*#o#o#oo*%%%*%##o#o#o#X&@&@&O#oo#oo#*%%*",
"&=&&+*%%%$*#--**-*$*%%%$*#-*-*-**%%%%$#--*-**$X@@@+&O---*-*$*%%%",
"@@@@X%*%*%%o-%*%*%o%%*%%%o%*%%*%%*%*%%o-%*%%%o +@@@@X-%%%*%o%%*%",
"@@@&O%%%$%*o*%%%%*#%%$%%*o%%%%%*%%%$%%o*%%%%*#X&@@@&X*%%%%*#%%$%",
"@@&@X%%%%$*#-%**$%o%%%*$*#%*%*$%%%%%*$#-%*%*%o &@&+&O-%%*$%o%%%*",
"@@@&O*%*%%%o-%%%%*#**%%%%o%%%%%**%*%%%o-%%%%*#X@&@@@X-%%%%*#**%%",
"@@@@X*%****o-*%%%%o***%**o*%%%%%*%**%*o-*%%%%oX+&@&&X-*%%%%o***%",
"@@&&O#o#ooo#*%%*%*###o#oo#%%%*%*#o#o#o#*%%%**#+XOOXXO*%%*%*###o#",
"@@@&O--*--*$*%%%$*#-*-*-*$%%%%$*--*-*-$*%%%%*#--**-*$*%%%$*#-*-*"
};
